<mxfile host="app.diagrams.net" agent="Mozilla/5.0 (Macintosh; Intel Mac OS X 10_15_7) AppleWebKit/537.36 (KHTML, like Gecko) Chrome/128.0.0.0 Safari/537.36" version="24.8.0">
  <diagram name="Page-1" id="7bjGOv6pScPvx8lem8v3">
    <mxGraphModel dx="2074" dy="1152" grid="1" gridSize="10" guides="1" tooltips="1" connect="1" arrows="1" fold="1" page="1" pageScale="1" pageWidth="1920" pageHeight="1200" math="0" shadow="0">
      <root>
        <mxCell id="0" />
        <mxCell id="1" parent="0" />
        <mxCell id="CpL3pME8mf9ICMJjZv6O-8" value="VPC" style="sketch=0;outlineConnect=0;gradientColor=none;html=1;whiteSpace=wrap;fontSize=12;fontStyle=0;shape=mxgraph.aws4.group;grIcon=mxgraph.aws4.group_vpc;strokeColor=#879196;fillColor=none;verticalAlign=top;align=left;spacingLeft=30;fontColor=#879196;dashed=0;" vertex="1" parent="1">
          <mxGeometry x="360" y="140" width="980" height="510" as="geometry" />
        </mxCell>
        <mxCell id="CpL3pME8mf9ICMJjZv6O-7" value="Auto Scaling" style="rounded=1;arcSize=10;dashed=1;strokeColor=#F59D56;fillColor=none;gradientColor=none;dashPattern=8 4;strokeWidth=2;labelPosition=center;verticalLabelPosition=top;align=center;verticalAlign=bottom;spacingTop=5;spacingBottom=-20;spacingLeft=-100;" vertex="1" parent="1">
          <mxGeometry x="410" y="170" width="199.5" height="450" as="geometry" />
        </mxCell>
        <mxCell id="CpL3pME8mf9ICMJjZv6O-1" value="Server" style="outlineConnect=0;dashed=0;verticalLabelPosition=top;verticalAlign=bottom;align=center;html=1;shape=mxgraph.aws3.instance;fillColor=#F58534;gradientColor=none;labelPosition=center;" vertex="1" parent="1">
          <mxGeometry x="470" y="230" width="60" height="63" as="geometry" />
        </mxCell>
        <mxCell id="CpL3pME8mf9ICMJjZv6O-2" value="Filebeat" style="rounded=1;whiteSpace=wrap;html=1;" vertex="1" parent="1">
          <mxGeometry x="510" y="270" width="60" height="57" as="geometry" />
        </mxCell>
        <mxCell id="CpL3pME8mf9ICMJjZv6O-3" value="Server" style="outlineConnect=0;dashed=0;verticalLabelPosition=top;verticalAlign=bottom;align=center;html=1;shape=mxgraph.aws3.instance;fillColor=#F58534;gradientColor=none;labelPosition=center;" vertex="1" parent="1">
          <mxGeometry x="470" y="350" width="60" height="63" as="geometry" />
        </mxCell>
        <mxCell id="CpL3pME8mf9ICMJjZv6O-4" value="Filebeat" style="rounded=1;whiteSpace=wrap;html=1;" vertex="1" parent="1">
          <mxGeometry x="510" y="390" width="60" height="57" as="geometry" />
        </mxCell>
        <mxCell id="CpL3pME8mf9ICMJjZv6O-5" value="Server" style="outlineConnect=0;dashed=0;verticalLabelPosition=top;verticalAlign=bottom;align=center;html=1;shape=mxgraph.aws3.instance;fillColor=#F58534;gradientColor=none;labelPosition=center;" vertex="1" parent="1">
          <mxGeometry x="460" y="480" width="60" height="63" as="geometry" />
        </mxCell>
        <mxCell id="CpL3pME8mf9ICMJjZv6O-6" value="Filebeat" style="rounded=1;whiteSpace=wrap;html=1;" vertex="1" parent="1">
          <mxGeometry x="500" y="520" width="60" height="57" as="geometry" />
        </mxCell>
        <mxCell id="CpL3pME8mf9ICMJjZv6O-9" value="Logstash server&lt;div&gt;&lt;br&gt;&lt;/div&gt;" style="outlineConnect=0;dashed=0;verticalLabelPosition=bottom;verticalAlign=top;align=center;html=1;shape=mxgraph.aws3.instance;fillColor=#F58534;gradientColor=none;" vertex="1" parent="1">
          <mxGeometry x="760" y="300" width="150" height="160" as="geometry" />
        </mxCell>
        <mxCell id="CpL3pME8mf9ICMJjZv6O-12" value="" style="shape=flexArrow;endArrow=classic;html=1;rounded=0;" edge="1" parent="1">
          <mxGeometry width="50" height="50" relative="1" as="geometry">
            <mxPoint x="630" y="300" as="sourcePoint" />
            <mxPoint x="730" y="350" as="targetPoint" />
          </mxGeometry>
        </mxCell>
        <mxCell id="CpL3pME8mf9ICMJjZv6O-13" value="" style="shape=flexArrow;endArrow=classic;html=1;rounded=0;" edge="1" parent="1">
          <mxGeometry width="50" height="50" relative="1" as="geometry">
            <mxPoint x="620" y="390" as="sourcePoint" />
            <mxPoint x="730" y="390" as="targetPoint" />
          </mxGeometry>
        </mxCell>
        <mxCell id="CpL3pME8mf9ICMJjZv6O-14" value="" style="shape=flexArrow;endArrow=classic;html=1;rounded=0;" edge="1" parent="1">
          <mxGeometry width="50" height="50" relative="1" as="geometry">
            <mxPoint x="630" y="490" as="sourcePoint" />
            <mxPoint x="730" y="430" as="targetPoint" />
          </mxGeometry>
        </mxCell>
        <mxCell id="CpL3pME8mf9ICMJjZv6O-15" value="Realtime Logs pushed to the central log server" style="text;html=1;align=left;verticalAlign=middle;whiteSpace=wrap;rounded=0;fontSize=22;fontStyle=1" vertex="1" parent="1">
          <mxGeometry x="640" y="533.5" width="150" height="30" as="geometry" />
        </mxCell>
      </root>
    </mxGraphModel>
  </diagram>
</mxfile>
